<svg xmlns:mydata="http://www.w3.org/2000/svg" mydata:contrastcolor="ffffff" mydata:template="SingleColorHex1" mydata:presentation="2.5" mydata:layouttype="undefined" mydata:specialfontid="undefined" mydata:id1="078" mydata:id2="1037" mydata:companyname="PLD [Maker]" mydata:companytagline="" version="1.1" xmlns="http://www.w3.org/2000/svg" xmlns:xlink="http://www.w3.org/1999/xlink" viewBox="0 0 550 470"><g fill="#222223" fill-rule="none" stroke="none" stroke-width="1" stroke-linecap="butt" stroke-linejoin="miter" stroke-miterlimit="10" stroke-dasharray="" stroke-dashoffset="0" font-family="none" font-weight="none" font-size="none" text-anchor="none" style="mix-blend-mode: normal"><g data-paper-data="{&quot;isGlobalGroup&quot;:true,&quot;bounds&quot;:{&quot;x&quot;:194.4133093640392,&quot;y&quot;:117.9015028912335,&quot;width&quot;:161.17338127192164,&quot;height&quot;:234.19699421753302}}"><g data-paper-data="{&quot;stacked&quot;:true,&quot;isPrimaryText&quot;:true}" fill-rule="nonzero"><path d="M221.42247,255.36105c7.507,0 13.3109,1.7966 17.41169,5.38981c4.1008,3.59321 6.1512,8.66243 6.1512,15.20768c0,6.94598 -2.0504,12.34915 -6.1512,16.20951c-4.1008,3.86036 -9.9047,5.79054 -17.41169,5.79054h-7.93444v14.94721h-19.07472v-57.54475zM213.48803,283.53233h6.97269c2.08379,0 3.68003,-0.61445 4.78872,-1.84336c1.10868,-1.2289 1.66303,-2.93868 1.66303,-5.12934c0,-2.13722 -0.56102,-3.79357 -1.68306,-4.96905c-1.12204,-1.17547 -2.7116,-1.76321 -4.76868,-1.76321h-6.97269z" data-paper-data="{&quot;glyphName&quot;:&quot;P&quot;,&quot;glyphIndex&quot;:0,&quot;firstGlyphOfWord&quot;:true,&quot;word&quot;:1,&quot;line&quot;:1,&quot;firstGlyphOfFirstLine&quot;:true}"/><path d="M293.71406,297.07699v15.82881h-43.03834v-57.54475h19.07472v41.71593z" data-paper-data="{&quot;glyphName&quot;:&quot;L&quot;,&quot;glyphIndex&quot;:1,&quot;word&quot;:1,&quot;line&quot;:1}"/><path d="M324.28972,255.36105c6.30481,0 11.80816,1.17547 16.51005,3.52642c4.70189,2.35095 8.34185,5.70372 10.91988,10.05831c2.57803,4.35459 3.86704,9.40378 3.86704,15.14757c0,5.79722 -1.31573,10.85977 -3.94718,15.18765c-2.63146,4.32788 -6.36492,7.68065 -11.20039,10.05831c-4.83547,2.37766 -10.45904,3.56649 -16.87071,3.56649h-24.96544v-57.54475zM317.67769,298.11888h7.13298c3.44627,0 6.19127,-1.25562 8.23499,-3.76686c2.04372,-2.51124 3.06558,-5.87737 3.06558,-10.09838c0,-4.27445 -1.10868,-7.69401 -3.32605,-10.25867c-2.21737,-2.56467 -5.18277,-3.847 -8.89619,-3.847h-6.21131z" data-paper-data="{&quot;glyphName&quot;:&quot;D&quot;,&quot;glyphIndex&quot;:2,&quot;lastGlyphOfWord&quot;:true,&quot;word&quot;:1,&quot;line&quot;:1,&quot;lastGlyphOfFirstLine&quot;:true}"/><path d="M201.49444,327.33182v18.89452h4.14505v5.87215h-11.22618v-30.63883h11.22618v5.87215z" data-paper-data="{&quot;glyphName&quot;:&quot;[&quot;,&quot;glyphIndex&quot;:3,&quot;firstGlyphOfWord&quot;:true,&quot;word&quot;:2,&quot;line&quot;:2,&quot;firstGlyphOfSecondLine&quot;:true}"/><path d="M228.76542,347.71165v-13.57504l-4.24868,11.17437h-5.37129l-4.24868,-11.17437v13.57504h-7.15021v-24.80122h8.67006l5.42311,12.95328l5.40584,-12.95328h8.67006v24.80122z" data-paper-data="{&quot;glyphName&quot;:&quot;M&quot;,&quot;glyphIndex&quot;:4,&quot;word&quot;:2,&quot;line&quot;:2}"/><path d="M247.02091,344.20563l-1.27806,3.50602h-8.411l10.46625,-24.80122h8.411l10.08629,24.80122h-8.73915l-1.24352,-3.50602zM251.75317,331.07964l-2.60793,7.25384h5.16404z" data-paper-data="{&quot;glyphName&quot;:&quot;A&quot;,&quot;glyphIndex&quot;:5,&quot;word&quot;:2,&quot;line&quot;:2}"/><path d="M278.31604,339.17976l-2.40068,2.69428v5.83761h-8.22102v-24.80122h8.22102v8.60098l7.39201,-8.60098h9.42999l-8.84277,9.98266l9.37818,14.81856h-9.79268z" data-paper-data="{&quot;glyphName&quot;:&quot;K&quot;,&quot;glyphIndex&quot;:6,&quot;word&quot;:2,&quot;line&quot;:2}"/><path d="M303.25543,329.14528v3.0397h11.58887v6.21758h-11.58887v3.09152h13.07418v6.21758h-21.2952v-24.80122h20.98432v6.23485z" data-paper-data="{&quot;glyphName&quot;:&quot;E&quot;,&quot;glyphIndex&quot;:7,&quot;word&quot;:2,&quot;line&quot;:2}"/><path d="M330.73366,341.26955h-3.07425v6.4421h-8.22102v-24.80122h12.00338c3.37361,0 5.97866,0.77432 7.81515,2.32296c1.83649,1.54864 2.75473,3.73342 2.75473,6.55436c0,1.79619 -0.33679,3.35922 -1.01036,4.68909c-0.67357,1.32987 -1.64363,2.38628 -2.91017,3.16924l4.87043,8.06558h-9.25728zM331.44177,335.05198c0.89809,0 1.58606,-0.26482 2.06389,-0.79447c0.47783,-0.52965 0.71675,-1.26654 0.71675,-2.21069c0,-0.92112 -0.24179,-1.63499 -0.72538,-2.14161c-0.48359,-0.50662 -1.16867,-0.75993 -2.05525,-0.75993h-3.78236v5.9067z" data-paper-data="{&quot;glyphName&quot;:&quot;R&quot;,&quot;glyphIndex&quot;:8,&quot;word&quot;:2,&quot;line&quot;:2}"/><path d="M348.50556,327.33182v18.89452h-4.14505v5.87215h11.22618v-30.63883h-11.22618v5.87215z" data-paper-data="{&quot;glyphName&quot;:&quot;]&quot;,&quot;glyphIndex&quot;:9,&quot;lastGlyphOfWord&quot;:true,&quot;word&quot;:2,&quot;line&quot;:2,&quot;lastGlyphOfSecondLine&quot;:true}"/></g><g data-paper-data="{&quot;fillRule&quot;:&quot;evenodd&quot;,&quot;fillRuleOriginal&quot;:&quot;evenodd&quot;,&quot;isIcon&quot;:true,&quot;iconStyle&quot;:&quot;standalone&quot;,&quot;selectedEffects&quot;:{&quot;container&quot;:&quot;&quot;,&quot;transformation&quot;:&quot;&quot;,&quot;pattern&quot;:&quot;&quot;},&quot;bounds&quot;:{&quot;x&quot;:216.40272588678582,&quot;y&quot;:117.9015028912335,&quot;width&quot;:117.1945482264284,&quot;height&quot;:112.02420602559407},&quot;iconType&quot;:&quot;icon&quot;,&quot;rawIconId&quot;:&quot;997760&quot;,&quot;isDetailed&quot;:false,&quot;suitableAsStandaloneIcon&quot;:true}" fill-rule="evenodd"><path d="M287.93224,117.9015c-5.24204,0 -9.48535,4.24162 -9.48535,9.47897c0,5.23045 4.24744,9.47897 9.48207,9.47897h13.79156c3.31523,0 6.02501,2.70789 6.02501,6.03207c0,3.3254 -2.70306,6.03207 -6.02708,6.03207h-75.84025c-5.24463,0 -9.47547,4.24054 -9.47547,9.47897c0,5.23205 4.25421,9.47897 9.4939,9.47897h56.87475c3.30885,0 6.01622,2.70771 6.01622,6.03207c0,3.32419 -2.70892,6.03207 -6.04293,6.03207h-12.06794c-5.22878,0 -9.46432,4.24572 -9.46432,9.47897c0,5.23067 4.2483,9.47897 9.48345,9.47897h25.83675c3.34797,0 6.04259,2.69496 6.04259,6.03207c0,3.32436 -2.70823,6.03207 -6.04103,6.03207h-49.95934c-5.25221,0 -9.49069,4.23814 -9.49069,9.47897c0,5.22843 4.23831,9.47897 9.46622,9.47897h73.27589c7.60179,0 13.77105,-6.17805 13.77105,-13.79087v-84.44251c0,-7.62573 -6.17512,-13.79082 -13.79914,-13.79082zM236.23376,117.9015c-5.24066,0 -9.49034,4.24215 -9.49034,9.47897c0,5.23151 4.2522,9.47897 9.49034,9.47897h22.38209c5.24066,0 9.49034,-4.24215 9.49034,-9.47897c0,-5.23151 -4.25226,-9.47897 -9.49034,-9.47897zM241.39842,198.90362c5.23308,0 9.47328,-4.24451 9.47328,-9.47897c0,-5.22929 -4.24227,-9.47897 -9.47328,-9.47897h-12.07556c-5.23303,0 -9.47325,4.24451 -9.47325,9.47897c0,5.22929 4.24232,9.47897 9.47325,9.47897z" data-paper-data="{&quot;isPathIcon&quot;:true}"/></g></g></g></svg>